<?xml version="1.0" encoding="UTF-8"?>
<svg width="169px" height="50px" viewBox="0 0 169 50" version="1.1" xmlns="http://www.w3.org/2000/svg" xmlns:xlink="http://www.w3.org/1999/xlink">
    <!-- Generator: Sketch 49.3 (51167) - http://www.bohemiancoding.com/sketch -->
    <title>btn_android</title>
    <desc>Created with Sketch.</desc>
    <defs>
        <path d="M1.74236121,16.0622277 C1.2629274,16.0622243 0.850978528,15.8894761 0.544555556,15.56625 L16.1338667,0 L21.4166815,5.275 L3.14465185,15.6425 C2.64204295,15.9274376 2.16587219,16.0622306 1.74236121,16.0622277 L1.74236121,16.0622277 L1.74236121,16.0622277 Z" id="path-1"></path>
        <path d="M1.74238384,0.187772342 C2.16588916,0.187774167 2.6420519,0.322567476 3.14465185,0.6075 L21.4166815,10.975 L16.1338667,16.25 L0.544555556,0.68375 C0.850978528,0.360523891 1.2629274,0.187775712 1.74236121,0.187772342 L1.74237493,0.187772342 L1.74238384,0.187772342 Z" id="path-3"></path>
    </defs>
    <g id="Assets" stroke="none" stroke-width="1" fill="none" fill-rule="evenodd">
        <g transform="translate(-1241.000000, -200.000000)" id="btn_android">
            <g transform="translate(1241.000000, 200.000000)">
                <g>
                    <path d="M162.740741,50 L6.25925926,50 C2.81666667,50 0,47.1875 0,43.75 L0,6.25 C0,2.8125 2.81666667,0 6.25925926,0 L162.740741,0 C166.183333,0 169,2.8125 169,6.25 L169,43.75 C169,47.1875 166.183333,50 162.740741,50" id="Fill-3" fill="#0A0B09"></path>
                    <path d="M162.740741,0 L6.25925926,0 C2.81666667,0 0,2.8125 0,6.25 L0,43.75 C0,47.1875 2.81666667,50 6.25925926,50 L162.740741,50 C166.183333,50 169,47.1875 169,43.75 L169,6.25 C169,2.8125 166.183333,0 162.740741,0 L162.740741,0 Z M162.740741,1 C165.64003,1 167.998519,3.355 167.998519,6.25 L167.998519,43.75 C167.998519,46.645 165.64003,49 162.740741,49 L6.25925926,49 C3.35997037,49 1.00148148,46.645 1.00148148,43.75 L1.00148148,6.25 C1.00148148,3.355 3.35997037,1 6.25925926,1 L162.740741,1 L162.740741,1 Z" id="Fill-4" fill="#9E9F9B"></path>
                    <path d="M133.86803,37.5 L136.203985,37.5 L136.203985,21.87375 L133.86803,21.87375 L133.86803,37.5 Z M154.907904,27.5025 L152.230193,34.2775 L152.150074,34.2775 L149.370963,27.5025 L146.854741,27.5025 L151.022156,36.97125 L148.646141,42.23875 L151.083496,42.23875 L157.505496,27.5025 L154.907904,27.5025 L154.907904,27.5025 Z M141.660807,35.725 C140.894674,35.725 139.828096,35.34375 139.828096,34.39875 C139.828096,33.1925 141.157563,32.73 142.304259,32.73 C143.33203,32.73 143.813993,32.95125 144.438667,33.2525 C144.257148,34.7 143.009052,35.725 141.660807,35.725 L141.660807,35.725 Z M141.942474,27.16125 C140.251222,27.16125 138.499881,27.905 137.775059,29.55375 L139.848126,30.4175 C140.291281,29.55375 141.116252,29.27125 141.982533,29.27125 C143.19057,29.27125 144.418637,29.995 144.438667,31.2825 L144.438667,31.4425 C144.015541,31.20125 143.110452,30.84 142.002563,30.84 C139.768007,30.84 137.492141,32.06625 137.492141,34.3575 C137.492141,36.44875 139.324852,37.79625 141.377889,37.79625 C142.948963,37.79625 143.813993,37.0925 144.358548,36.2675 L144.438667,36.2675 L144.438667,37.47375 L146.693252,37.47375 L146.693252,31.48375 C146.693252,28.70875 144.620185,27.16125 141.942474,27.16125 L141.942474,27.16125 Z M127.506119,29.405 L124.183704,29.405 L124.183704,24.04875 L127.506119,24.04875 C129.252452,24.04875 130.243919,25.4925 130.243919,26.72625 C130.243919,27.9375 129.252452,29.405 127.506119,29.405 L127.506119,29.405 Z M127.44603,21.87375 L121.849,21.87375 L121.849,37.5 L124.183704,37.5 L124.183704,31.58 L127.44603,31.58 C130.034859,31.58 132.579874,29.7075 132.579874,26.72625 C132.579874,23.745 130.034859,21.87375 127.44603,21.87375 L127.44603,21.87375 Z M96.9246296,35.7275 C95.3109926,35.7275 93.9602444,34.37875 93.9602444,32.52625 C93.9602444,30.65375 95.3109926,29.28375 96.9246296,29.28375 C98.518237,29.28375 99.7675852,30.65375 99.7675852,32.52625 C99.7675852,34.37875 98.518237,35.7275 96.9246296,35.7275 L96.9246296,35.7275 Z M99.6060963,28.3775 L99.5259778,28.3775 C99.0014519,27.75375 97.9937111,27.19 96.7230815,27.19 C94.0603926,27.19 91.6205333,29.525 91.6205333,32.52625 C91.6205333,35.50625 94.0603926,37.8225 96.7230815,37.8225 C97.9937111,37.8225 99.0014519,37.25875 99.5259778,36.61375 L99.6060963,36.61375 L99.6060963,37.37875 C99.6060963,39.41375 98.518237,40.50125 96.7631407,40.50125 C95.3310222,40.50125 94.4434593,39.47375 94.0804222,38.6075 L92.0436593,39.45375 C92.6282741,40.86375 94.1818222,42.595 96.7631407,42.595 C99.5059481,42.595 101.82563,40.98375 101.82563,37.0575 L101.82563,27.51125 L99.6060963,27.51125 L99.6060963,28.3775 L99.6060963,28.3775 Z M103.439267,37.5 L105.778978,37.5 L105.778978,21.8725 L103.439267,21.8725 L103.439267,37.5 Z M109.226578,32.345 C109.166489,30.29125 110.820185,29.24375 112.009444,29.24375 C112.938319,29.24375 113.724481,29.70625 113.986119,30.37125 L109.226578,32.345 L109.226578,32.345 Z M116.487319,30.5725 C116.044163,29.385 114.692163,27.19 111.929326,27.19 C109.186519,27.19 106.908148,29.34375 106.908148,32.50625 C106.908148,35.48625 109.166489,37.8225 112.190963,37.8225 C114.632074,37.8225 116.044163,36.3325 116.628778,35.46625 L114.813593,34.2575 C114.208948,35.14375 113.381474,35.7275 112.190963,35.7275 C111.001704,35.7275 110.1542,35.18375 109.609644,34.1175 L116.728926,31.1775 L116.487319,30.5725 L116.487319,30.5725 Z M59.7684148,28.82125 L59.7684148,31.07625 L65.1726593,31.07625 C65.0111704,32.345 64.5880444,33.27125 63.9433407,33.91625 C63.1559259,34.70125 61.9253556,35.56625 59.7684148,35.56625 C56.4409926,35.56625 53.8383926,32.88875 53.8383926,29.56625 C53.8383926,26.2425 56.4409926,23.565 59.7684148,23.565 C61.5635704,23.565 62.8742593,24.27 63.8419407,25.17625 L65.4355481,23.585 C64.0835481,22.29625 62.2896444,21.30875 59.7684148,21.30875 C55.2104222,21.30875 51.3785037,25.015 51.3785037,29.56625 C51.3785037,34.1175 55.2104222,37.8225 59.7684148,37.8225 C62.2283037,37.8225 64.0835481,37.0175 65.5356963,35.50625 C67.0279037,34.01625 67.4923407,31.9225 67.4923407,30.23 C67.4923407,29.70625 67.4522815,29.22375 67.3709111,28.82125 L59.7684148,28.82125 L59.7684148,28.82125 Z M73.6376815,35.7275 C72.0240444,35.7275 70.6319852,34.39875 70.6319852,32.50625 C70.6319852,30.5925 72.0240444,29.28375 73.6376815,29.28375 C75.2500667,29.28375 76.6421259,30.5925 76.6421259,32.50625 C76.6421259,34.39875 75.2500667,35.7275 73.6376815,35.7275 L73.6376815,35.7275 Z M73.6376815,27.19 C70.6920741,27.19 68.2922741,29.425 68.2922741,32.50625 C68.2922741,35.56625 70.6920741,37.8225 73.6376815,37.8225 C76.582037,37.8225 78.981837,35.56625 78.981837,32.50625 C78.981837,29.425 76.582037,27.19 73.6376815,27.19 L73.6376815,27.19 Z M85.2961778,35.7275 C83.6825407,35.7275 82.2904815,34.39875 82.2904815,32.50625 C82.2904815,30.5925 83.6825407,29.28375 85.2961778,29.28375 C86.9098148,29.28375 88.3006222,30.5925 88.3006222,32.50625 C88.3006222,34.39875 86.9098148,35.7275 85.2961778,35.7275 L85.2961778,35.7275 Z M85.2961778,27.19 C82.3518222,27.19 79.9520222,29.425 79.9520222,32.50625 C79.9520222,35.56625 82.3518222,37.8225 85.2961778,37.8225 C88.2405333,37.8225 90.6403333,35.56625 90.6403333,32.50625 C90.6403333,29.425 88.2405333,27.19 85.2961778,27.19 L85.2961778,27.19 Z" id="Fill-5" fill="#FFFFFE"></path>
                    <path d="M13.0630741,9.43375 C12.6987852,9.81875 12.4847185,10.415 12.4847185,11.18875 L12.4847185,38.81125 C12.4847185,39.585 12.6987852,40.18125 13.0630741,40.56625 L13.1557111,40.65625 L28.6523852,25.1825 L28.6523852,24.8175 L13.1557111,9.34375 L13.0630741,9.43375" id="Fill-6" fill="#60C2E3"></path>
                    <path d="M33.8162741,30.3425 L28.6523852,25.1825 L28.6523852,24.8175 L33.8187778,19.65875 L40.0555037,23.19625 C41.8030889,24.18875 41.8030889,25.81125 40.0555037,26.8025 L33.9352,30.275 L33.8162741,30.3425" id="Fill-7" fill="#FFEB3B"></path>
                    <g id="Group-11" transform="translate(12.518519, 25.000000)">
                        <mask id="mask-2" fill="white">
                            <use xlink:href="#path-1"></use>
                        </mask>
                        <g id="Clip-10"></g>
                        <path d="M21.4166815,5.275 L16.1338667,0 L0.544555556,15.56625 C1.12165926,16.175 2.07306667,16.25 3.14465185,15.6425 L21.4166815,5.275" id="Fill-9" fill="#E91E63" mask="url(#mask-2)"></path>
                    </g>
                    <g id="Group-14" transform="translate(12.518519, 8.750000)">
                        <mask id="mask-4" fill="white">
                            <use xlink:href="#path-3"></use>
                        </mask>
                        <g id="Clip-13"></g>
                        <path d="M21.4166815,10.975 L3.14465185,0.6075 C2.07306667,3.32789352e-14 1.12165926,0.075 0.544555556,0.68375 L16.1338667,16.25 L21.4166815,10.975" id="Fill-12" fill="#00F076" mask="url(#mask-4)"></path>
                    </g>
                    <path d="M52.7129778,15.32875 L54.0462,15.32875 C54.9124815,15.32875 55.5997481,15.08125 56.1067481,14.58375 C56.615,14.08875 56.8678741,13.39375 56.8678741,12.5 C56.8678741,11.61375 56.615,10.92 56.1067481,10.42 C55.5997481,9.9225 54.9124815,9.67125 54.0462,9.67125 L52.7129778,9.67125 L52.7129778,15.32875 L52.7129778,15.32875 Z M51.7490519,16.25 L51.7490519,8.75 L54.0462,8.75 C55.2004074,8.75 56.1230222,9.0975 56.8165481,9.7925 C57.5075704,10.4875 57.8543333,11.38875 57.8543333,12.5 C57.8543333,13.61 57.5075704,14.5125 56.8165481,15.2075 C56.1230222,15.9025 55.2004074,16.25 54.0462,16.25 L51.7490519,16.25 L51.7490519,16.25 Z" id="Fill-15" fill="#FFFFFE"></path>
                    <path d="M52.7129778,15.32875 L52.7129778,15.45375 L54.0462,15.45375 C54.9350148,15.455 55.6610889,15.19625 56.1943778,14.67375 C56.7301704,14.15125 56.9943111,13.41625 56.9930593,12.5 C56.9943111,11.59 56.7301704,10.8575 56.1956296,10.33125 C55.6623407,9.80625 54.9362667,9.54625 54.0462,9.54625 L52.5877926,9.54625 L52.5877926,15.45375 L52.7129778,15.45375 L52.7129778,15.32875 L52.838163,15.32875 L52.838163,9.79625 L54.0462,9.79625 C54.8899481,9.7975 55.5384074,10.0375 56.0191185,10.51 C56.4985778,10.9825 56.741437,11.63625 56.7426889,12.5 C56.741437,13.37125 56.4985778,14.02625 56.0191185,14.495 C55.5384074,14.965 54.8899481,15.2025 54.0462,15.20375 L52.7129778,15.20375 L52.7129778,15.32875 L52.838163,15.32875 L52.7129778,15.32875 L52.7129778,15.32875 Z M51.7490519,16.25 L51.874237,16.25 L51.874237,8.875 L54.0462,8.875 C55.1753704,8.87625 56.0591778,9.21125 56.7276667,9.88 C57.3949037,10.55125 57.7278963,11.415 57.7291481,12.5 C57.7278963,13.585 57.3949037,14.44875 56.7276667,15.12 C56.0591778,15.78875 55.1753704,16.12375 54.0462,16.125 L51.7490519,16.125 L51.7490519,16.25 L51.874237,16.25 L51.7490519,16.25 L51.7490519,16.375 L54.0462,16.375 C55.2241926,16.37625 56.1868667,16.0175 56.9054296,15.29625 C57.6214889,14.5775 57.9807704,13.635 57.9795185,12.5 C57.9807704,11.36375 57.6214889,10.4225 56.9054296,9.705 C56.1868667,8.9825 55.2241926,8.62375 54.0462,8.625 L51.6238667,8.625 L51.6238667,16.375 L51.7490519,16.375 L51.7490519,16.25 L51.7490519,16.25 Z" id="Fill-16" fill="#FFFFFE"></path>
                    <polygon id="Fill-17" fill="#FFFFFE" points="59.2075852 16.25 60.172763 16.25 60.172763 8.75 59.2075852 8.75"></polygon>
                    <polyline id="Fill-18" fill="#FFFFFE" points="59.2075852 16.25 59.3327704 16.25 59.3327704 8.875 60.0463259 8.875 60.0463259 16.125 59.2075852 16.125 59.2075852 16.25 59.3327704 16.25 59.2075852 16.25 59.2075852 16.375 60.2966963 16.375 60.2966963 8.625 59.0824 8.625 59.0824 16.375 59.2075852 16.375 59.2075852 16.25"></polyline>
                    <path d="M64.0121926,16.4175 C63.4663852,16.4175 62.9330963,16.24 62.4123259,15.88375 C61.8903037,15.5275 61.5498,15.0275 61.389563,14.385 L62.2708667,14.03 C62.3760222,14.44125 62.5900889,14.78875 62.9155704,15.07125 C63.2423037,15.35375 63.6065926,15.495 64.0121926,15.495 C64.431563,15.495 64.7908444,15.38625 65.0875333,15.16625 C65.3842222,14.94625 65.5331926,14.6475 65.5331926,14.27 C65.5331926,13.85125 65.3842222,13.52875 65.0875333,13.30125 C64.7908444,13.07375 64.3201481,12.86375 63.6766963,12.6675 C63.011963,12.45875 62.5087185,12.1875 62.1657111,11.855 C61.8239556,11.52375 61.6512,11.1 61.6512,10.5825 C61.6512,10.045 61.8652667,9.5775 62.2921481,9.18 C62.7190296,8.78125 63.2748519,8.5825 63.9596148,8.5825 C64.5968074,8.5825 65.1138222,8.74125 65.5119111,9.05875 C65.91,9.3775 66.1691333,9.72375 66.2880593,10.10125 L65.4080074,10.4675 C65.344163,10.23125 65.1889333,10.01 64.9410667,9.8075 C64.6932,9.60625 64.3727259,9.505 63.9796444,9.505 C63.6090963,9.505 63.2936296,9.6075 63.0319926,9.81375 C62.7691037,10.02 62.6376593,10.27625 62.6376593,10.5825 C62.6376593,10.8625 62.7590889,11.0975 62.9994444,11.29 C63.2423037,11.4825 63.5965778,11.655 64.0647704,11.80875 C64.4353185,11.9275 64.7445259,12.0425 64.9936444,12.155 C65.2415111,12.26625 65.4931333,12.415 65.7485111,12.6 C66.0038889,12.785 66.1954222,13.015 66.324363,13.29125 C66.4545556,13.5675 66.5196519,13.88625 66.5196519,14.24875 C66.5196519,14.6125 66.4445407,14.9375 66.2943185,15.22375 C66.1440963,15.51 65.9438,15.73625 65.6959333,15.905 C65.4468148,16.07125 65.1801704,16.19875 64.8934963,16.28625 C64.6055704,16.37375 64.312637,16.4175 64.0121926,16.4175" id="Fill-19" fill="#FFFFFE"></path>
                    <path d="M64.0121926,16.4175 L64.0121926,16.2925 C63.4939259,16.2925 62.9881778,16.125 62.4836815,15.78125 C61.9866963,15.44 61.6662222,14.9725 61.5109926,14.355 L61.389563,14.385 L61.4358815,14.50125 L62.318437,14.145 L62.2708667,14.03 L62.149437,14.06 C62.2608519,14.49625 62.4899407,14.8675 62.8329481,15.16625 C63.1784593,15.465 63.5765481,15.62125 64.0121926,15.62125 C64.4528444,15.62125 64.8421704,15.50375 65.1626444,15.26625 C65.4893778,15.0275 65.6608815,14.68 65.6583778,14.27 C65.6608815,13.8225 65.4931333,13.45125 65.1638963,13.2025 C64.8459259,12.96 64.363963,12.74625 63.713,12.5475 L63.7142519,12.5475 C63.062037,12.34375 62.5750667,12.07875 62.2533407,11.76625 C61.9353704,11.45625 61.777637,11.0725 61.7763852,10.5825 C61.777637,10.07875 61.9716741,9.65125 62.3772741,9.27125 C62.7791185,8.8975 63.298637,8.7075 63.9596148,8.7075 C64.5767778,8.7075 65.0612444,8.86 65.4342963,9.15625 C65.8186148,9.46375 66.0589704,9.79125 66.1691333,10.13875 L66.2880593,10.10125 L66.2404889,9.98625 L65.360437,10.3525 L65.4080074,10.4675 L65.529437,10.435 C65.4568296,10.1675 65.2828222,9.925 65.0199333,9.71125 C64.7470296,9.4875 64.3927556,9.37875 63.9796444,9.38 C63.586563,9.37875 63.2385481,9.49 62.9543778,9.715 C62.6664519,9.9375 62.5112222,10.24 62.5124741,10.5825 C62.5112222,10.9 62.656437,11.18 62.9218296,11.3875 L62.9218296,11.38875 C63.1822148,11.59375 63.5490074,11.77125 64.025963,11.9275 C64.3940074,12.045 64.6994593,12.15875 64.9423185,12.26875 C65.1814222,12.375 65.4255333,12.52 65.6746519,12.7 L65.6746519,12.70125 C65.9137556,12.87375 66.0902667,13.0875 66.2116963,13.34375 C66.3318741,13.60125 66.3944667,13.90125 66.3944667,14.24875 C66.3944667,14.595 66.3231111,14.89875 66.1841556,15.165 C66.0414444,15.43625 65.8561704,15.645 65.6245778,15.80125 L65.6258296,15.80125 C65.3867259,15.96125 65.1326,16.08375 64.8571926,16.1675 C64.5817852,16.25125 64.3001185,16.2925 64.0121926,16.2925 L64.0121926,16.5425 C64.3251556,16.5425 64.6306074,16.4975 64.9298,16.40625 C65.2289926,16.315 65.5069037,16.1825 65.766037,16.0075 C66.0314296,15.82875 66.2467481,15.585 66.4057333,15.28125 C66.5659704,14.97625 66.644837,14.63 66.644837,14.24875 C66.644837,13.87125 66.577237,13.5325 66.4382815,13.2375 C66.3005778,12.94375 66.0927704,12.695 65.8211185,12.49875 C65.5607333,12.30875 65.3028519,12.15625 65.0449704,12.04 C64.7895926,11.925 64.4766296,11.81 64.1023259,11.69 L64.1035778,11.69 C63.6441481,11.54 63.3011407,11.37 63.0770593,11.1925 L63.0783111,11.1925 C62.8604889,11.01625 62.7653481,10.825 62.7628444,10.5825 C62.7653481,10.3125 62.8705037,10.10125 63.1083556,9.91125 L63.1096074,9.91125 C63.3474593,9.72375 63.6328815,9.63 63.9796444,9.63 C64.3514444,9.63 64.6393704,9.72375 64.8622,9.905 L64.8634519,9.90625 L64.8622,9.905 C65.0962963,10.09625 65.2314963,10.29375 65.2865778,10.5 L65.3241333,10.6375 L66.3368815,10.21625 L66.442037,10.1725 L66.408237,10.06375 C66.2805481,9.6575 66.002637,9.29 65.5907778,8.96125 C65.1651481,8.6225 64.616837,8.45625 63.9596148,8.4575 C63.2510667,8.45625 62.6576889,8.66625 62.2070222,9.08875 C61.7588593,9.50375 61.524763,10.01125 61.5260148,10.5825 C61.524763,11.1275 61.7125407,11.59125 62.0793333,11.945 C62.4411185,12.29625 62.9618889,12.57375 63.6391407,12.78625 L63.6403926,12.78625 C64.2763333,12.98 64.735763,13.18875 65.0111704,13.40125 C65.276563,13.60625 65.4055037,13.88 65.4080074,14.27 C65.4055037,14.615 65.2803185,14.865 65.0136741,15.06625 C64.7395185,15.2675 64.4090296,15.37 64.0121926,15.37125 C63.6353852,15.37 63.3048963,15.2425 62.9969407,14.9775 L62.9981926,14.9775 C62.690237,14.71 62.4924444,14.3875 62.3922963,13.99875 L62.3572444,13.86 L61.3432444,14.27 L61.2418444,14.31 L61.2681333,14.415 C61.4333778,15.08375 61.795163,15.615 62.3422222,15.9875 C62.8792667,16.35375 63.4388444,16.5425 64.0121926,16.5425 L64.0121926,16.4175" id="Fill-20" fill="#FFFFFE"></path>
                    <path d="M68.8693778,12.29 L70.4855185,12.29 C70.8911185,12.29 71.2166,12.155 71.4607111,11.8825 C71.7048222,11.61 71.8275037,11.31 71.8275037,10.98125 C71.8275037,10.6525 71.7048222,10.3525 71.4607111,10.08125 C71.2166,9.8075 70.8911185,9.67125 70.4855185,9.67125 L68.8693778,9.67125 L68.8693778,12.29 L68.8693778,12.29 Z M68.8693778,16.25 L67.9042,16.25 L67.9042,8.75 L70.464237,8.75 C71.1001778,8.75 71.6509926,8.96125 72.1154296,9.38375 C72.5811185,9.80625 72.813963,10.33875 72.813963,10.98125 C72.813963,11.62375 72.5811185,12.15625 72.1154296,12.57875 C71.6509926,13.00125 71.1001778,13.2125 70.464237,13.2125 L68.8693778,13.2125 L68.8693778,16.25 L68.8693778,16.25 Z" id="Fill-21" fill="#FFFFFE"></path>
                    <path d="M68.8693778,12.29 L68.8693778,12.415 L70.4855185,12.415 C70.9186593,12.41625 71.2867037,12.265 71.5533481,11.96625 L71.5546,11.96625 C71.8149852,11.675 71.9539407,11.34125 71.9526889,10.98125 C71.9539407,10.62125 71.8149852,10.2875 71.5533481,9.9975 L71.5546,9.9975 C71.2867037,9.6975 70.9186593,9.545 70.4855185,9.54625 L68.7441926,9.54625 L68.7441926,12.415 L68.8693778,12.415 L68.8693778,12.29 L68.994563,12.29 L68.994563,9.79625 L70.4855185,9.79625 C70.8635778,9.79875 71.1452444,9.91875 71.3668222,10.16375 L71.3693259,10.16625 L71.3668222,10.16375 C71.5946593,10.41875 71.7010667,10.685 71.7023185,10.98125 C71.7010667,11.2775 71.5946593,11.54375 71.3668222,11.79875 C71.1452444,12.04375 70.8635778,12.16375 70.4855185,12.165 L68.8693778,12.165 L68.8693778,12.29 L68.994563,12.29 L68.8693778,12.29 L68.8693778,12.29 Z M68.8693778,16.25 L68.8693778,16.125 L68.0293852,16.125 L68.0293852,8.875 L70.464237,8.875 C71.072637,8.87625 71.5871481,9.07375 72.0315556,9.47625 C72.4734593,9.87875 72.6875259,10.36875 72.6887778,10.98125 C72.6875259,11.59375 72.4734593,12.08375 72.0315556,12.48625 C71.5871481,12.88875 71.072637,13.08625 70.464237,13.0875 L68.7441926,13.0875 L68.7441926,16.25 L68.8693778,16.25 L68.8693778,16.125 L68.8693778,16.25 L68.994563,16.25 L68.994563,13.3375 L70.464237,13.3375 C71.1277185,13.33875 71.714837,13.11375 72.2005556,12.67 C72.6900296,12.2275 72.9404,11.65375 72.9391481,10.98125 C72.9404,10.30875 72.6900296,9.73375 72.2005556,9.29125 C71.714837,8.84875 71.1277185,8.62375 70.464237,8.625 L67.7790148,8.625 L67.7790148,16.375 L68.994563,16.375 L68.994563,16.25 L68.8693778,16.25 L68.8693778,16.25 Z" id="Fill-22" fill="#FFFFFE"></path>
                    <path d="M75.3777556,14.6525 C75.9335778,15.215 76.6133333,15.495 77.4182741,15.495 C78.221963,15.495 78.9029704,15.215 79.4587926,14.6525 C80.0146148,14.09 80.2937778,13.3725 80.2937778,12.5 C80.2937778,11.6275 80.0146148,10.91 79.4587926,10.3475 C78.9029704,9.785 78.221963,9.505 77.4182741,9.505 C76.6133333,9.505 75.9335778,9.785 75.3777556,10.3475 C74.8231852,10.91 74.5440222,11.6275 74.5440222,12.5 C74.5440222,13.3725 74.8231852,14.09 75.3777556,14.6525 L75.3777556,14.6525 Z M80.1723481,15.28125 C79.4337556,16.03875 78.5161481,16.4175 77.4182741,16.4175 C76.3204,16.4175 75.4015407,16.03875 74.6654519,15.28125 C73.9268593,14.52375 73.5588148,13.59625 73.5588148,12.5 C73.5588148,11.40375 73.9268593,10.47625 74.6654519,9.71875 C75.4015407,8.96125 76.3204,8.5825 77.4182741,8.5825 C78.5098889,8.5825 79.4249926,8.9625 80.1673407,9.72375 C80.908437,10.485 81.2789852,11.41 81.2789852,12.5 C81.2789852,13.59625 80.9096889,14.52375 80.1723481,15.28125 L80.1723481,15.28125 Z" id="Fill-23" fill="#FFFFFE"></path>
                    <path d="M75.3777556,14.6525 L75.2888741,14.74 C75.8647259,15.325 76.5845407,15.6225 77.4182741,15.62125 C78.2520074,15.6225 78.9718222,15.325 79.5476741,14.74 C80.1272815,14.15625 80.4202148,13.39875 80.418963,12.5 C80.4202148,11.60125 80.1272815,10.845 79.5476741,10.26 C78.9718222,9.675 78.2520074,9.37875 77.4182741,9.38 C76.5845407,9.37875 75.8647259,9.675 75.2888741,10.26 L75.2851185,10.26375 L75.2888741,10.26 C74.7092667,10.845 74.4175852,11.60125 74.418837,12.5 C74.4175852,13.39875 74.7092667,14.15625 75.2888741,14.74 L75.466637,14.565 C74.9358519,14.02625 74.6704593,13.34625 74.6692074,12.5 C74.6704593,11.65375 74.9358519,10.97375 75.466637,10.435 C76.0024296,9.895 76.6433778,9.63125 77.4182741,9.63 C78.1931704,9.63125 78.8353704,9.895 79.3686593,10.435 L79.3699111,10.435 C79.9019481,10.975 80.1673407,11.65375 80.1685926,12.5 C80.1673407,13.34625 79.9019481,14.025 79.3699111,14.565 C78.8353704,15.105 78.1931704,15.37 77.4182741,15.37125 C76.6433778,15.36875 76.0024296,15.105 75.466637,14.565 L75.3777556,14.6525 L75.3777556,14.6525 Z M80.1723481,15.28125 L80.0822148,15.19375 C79.3649037,15.92875 78.4873556,16.29125 77.4182741,16.2925 C76.3491926,16.29125 75.4703926,15.92875 74.7543333,15.19375 L74.7505778,15.19 L74.7543333,15.19375 C74.0382741,14.4575 73.6852519,13.56875 73.684,12.5 C73.6852519,11.43125 74.0382741,10.5425 74.7543333,9.80625 C75.4703926,9.07125 76.3491926,8.70875 77.4182741,8.7075 C78.4810963,8.70875 79.3561407,9.07375 80.0772074,9.81125 C80.7970222,10.55125 81.1525481,11.43875 81.1538,12.5 C81.1525481,13.56875 80.7982741,14.4575 80.0822148,15.19375 L80.2624815,15.3675 C81.0211037,14.59 81.4054222,13.62375 81.4041704,12.5 C81.4054222,11.3825 81.0198519,10.41875 80.2574741,9.6375 C79.4950963,8.8525 78.5386815,8.45625 77.4182741,8.4575 C76.2916074,8.45625 75.3326889,8.85125 74.5753185,9.6325 C73.8141926,10.41125 73.4323778,11.37625 73.4336296,12.5 C73.4323778,13.62375 73.8141926,14.59 74.5753185,15.3675 C75.3326889,16.15 76.2916074,16.54375 77.4182741,16.5425 C78.5449407,16.54375 79.5026074,16.15 80.2624815,15.3675 L80.1723481,15.28125 L80.1723481,15.28125 Z" id="Fill-24" fill="#FFFFFE"></path>
                    <polyline id="Fill-25" fill="#FFFFFE" points="82.6334889 16.25 82.6334889 8.75 83.8077259 8.75 87.4581259 14.58375 87.499437 14.58375 87.4581259 13.13875 87.4581259 8.75 88.4245556 8.75 88.4245556 16.25 87.4168148 16.25 83.5974148 10.1325 83.5561037 10.1325 83.5974148 11.57875 83.5974148 16.25 82.6334889 16.25"></polyline>
                    <polyline id="Fill-26" fill="#FFFFFE" points="82.6334889 16.25 82.7586741 16.25 82.7586741 8.875 83.7388741 8.875 87.3892741 14.71 87.6283778 14.71 87.5833111 13.1375 87.5833111 8.875 88.2993704 8.875 88.2993704 16.125 87.4869185 16.125 83.6675185 10.0075 83.427163 10.0075 83.4722296 11.58 83.4722296 16.125 82.6334889 16.125 82.6334889 16.25 82.7586741 16.25 82.6334889 16.25 82.6334889 16.375 83.7226 16.375 83.7226 11.57625 83.6812889 10.13 83.5561037 10.1325 83.5561037 10.2575 83.5974148 10.2575 83.5974148 10.1325 83.4910074 10.19875 87.347963 16.375 88.5497407 16.375 88.5497407 8.625 87.3329407 8.625 87.3329407 13.14 87.3755037 14.5875 87.499437 14.58375 87.499437 14.46 87.4581259 14.46 87.4581259 14.58375 87.5645333 14.51875 83.8778296 8.625 82.5083037 8.625 82.5083037 16.375 82.6334889 16.375 82.6334889 16.25"></polyline>
                    <path d="M91.0459333,8.16375 L90.2071926,8.16375 L90.753,6.8225 L91.8020519,6.8225 L91.0459333,8.16375 L91.0459333,8.16375 Z M90.1446,16.25 L91.1097778,16.25 L91.1097778,8.75 L90.1446,8.75 L90.1446,16.25 Z" id="Fill-27" fill="#FFFFFE"></path>
                    <path d="M91.0459333,8.16375 L91.0459333,8.03875 L90.3924667,8.03875 L90.8368741,6.9475 L91.5879852,6.9475 L90.9370222,8.1025 L91.0459333,8.16375 L91.0459333,8.03875 L91.0459333,8.16375 L91.1560963,8.225 L92.0161185,6.6975 L90.6691259,6.6975 L90.0206667,8.28875 L91.1197926,8.28875 L91.1560963,8.225 L91.0459333,8.16375 L91.0459333,8.16375 Z M90.1446,16.25 L90.2697852,16.25 L90.2697852,8.875 L90.9833407,8.875 L90.9833407,16.125 L90.1446,16.125 L90.1446,16.25 L90.2697852,16.25 L90.1446,16.25 L90.1446,16.375 L91.2337111,16.375 L91.2337111,8.625 L90.0194148,8.625 L90.0194148,16.375 L90.1446,16.375 L90.1446,16.25 L90.1446,16.25 Z" id="Fill-28" fill="#FFFFFE"></path>
                    <polyline id="Fill-29" fill="#FFFFFE" points="94.6863185 16.25 92.0424074 8.75 93.1127407 8.75 95.1682815 14.83625 95.2108444 14.83625 97.3515111 8.75 98.4205926 8.75 95.6928074 16.25 94.6863185 16.25"></polyline>
                    <polyline id="Fill-30" fill="#FFFFFE" points="94.6863185 16.25 94.8039926 16.20875 92.2201704 8.875 93.0226074 8.875 95.0794 14.96125 95.2997259 14.96125 97.4403926 8.875 98.2415778 8.875 95.6051778 16.125 94.6863185 16.125 94.6863185 16.25 94.8039926 16.20875 94.6863185 16.25 94.6863185 16.375 95.7816889 16.375 98.5996074 8.625 97.2626296 8.625 95.0919185 14.795 95.2108444 14.83625 95.2108444 14.71125 95.1682815 14.71125 95.1682815 14.83625 95.2872074 14.79625 93.2028741 8.625 91.8658963 8.625 94.597437 16.375 94.6863185 16.375 94.6863185 16.25"></polyline>
                    <polyline id="Fill-31" fill="#FFFFFE" points="103.896193 9.67125 100.476133 9.67125 100.476133 12.05 103.560696 12.05 103.560696 12.95 100.476133 12.95 100.476133 15.32875 103.896193 15.32875 103.896193 16.25 99.5109556 16.25 99.5109556 8.75 103.896193 8.75 103.896193 9.67125"></polyline>
                    <polyline id="Fill-32" fill="#FFFFFE" points="103.896193 9.67125 103.896193 9.54625 100.350948 9.54625 100.350948 12.175 103.435511 12.175 103.435511 12.825 100.350948 12.825 100.350948 15.45375 103.771007 15.45375 103.771007 16.125 99.6361407 16.125 99.6361407 8.875 103.771007 8.875 103.771007 9.67125 103.896193 9.67125 103.896193 9.54625 103.896193 9.67125 104.021378 9.67125 104.021378 8.625 99.3857704 8.625 99.3857704 16.375 104.021378 16.375 104.021378 15.20375 100.601319 15.20375 100.601319 13.075 103.685881 13.075 103.685881 11.925 100.601319 11.925 100.601319 9.79625 104.021378 9.79625 104.021378 9.67125 103.896193 9.67125"></polyline>
                    <polyline id="Fill-33" fill="#FFFFFE" points="105.407178 16.25 105.407178 8.75 106.372356 8.75 106.372356 15.32875 109.623415 15.32875 109.623415 16.25 105.407178 16.25"></polyline>
                    <polyline id="Fill-34" fill="#FFFFFE" points="105.407178 16.25 105.532363 16.25 105.532363 8.875 106.24717 8.875 106.24717 15.45375 109.49823 15.45375 109.49823 16.125 105.407178 16.125 105.407178 16.25 105.532363 16.25 105.407178 16.25 105.407178 16.375 109.7486 16.375 109.7486 15.20375 106.497541 15.20375 106.497541 8.625 105.281993 8.625 105.281993 16.375 105.407178 16.375 105.407178 16.25"></polyline>
                    <polyline id="Fill-35" fill="#FFFFFE" points="113.358941 16.25 113.358941 8.75 114.533178 8.75 118.183578 14.58375 118.224889 14.58375 118.183578 13.13875 118.183578 8.75 119.150007 8.75 119.150007 16.25 118.142267 16.25 114.322867 10.1325 114.281556 10.1325 114.322867 11.57875 114.322867 16.25 113.358941 16.25"></polyline>
                    <polyline id="Fill-36" fill="#FFFFFE" points="113.358941 16.25 113.484126 16.25 113.484126 8.875 114.464326 8.875 118.114726 14.71 118.35383 14.71 118.308763 13.1375 118.308763 8.875 119.024822 8.875 119.024822 16.125 118.21237 16.125 114.39297 10.0075 114.152615 10.0075 114.197681 11.58 114.197681 16.125 113.358941 16.125 113.358941 16.25 113.484126 16.25 113.358941 16.25 113.358941 16.375 114.448052 16.375 114.448052 11.57625 114.406741 10.13 114.281556 10.1325 114.281556 10.2575 114.322867 10.2575 114.322867 10.1325 114.216459 10.19875 118.073415 16.375 119.275193 16.375 119.275193 8.625 118.058393 8.625 118.058393 13.14125 118.099704 14.5875 118.224889 14.58375 118.224889 14.46 118.183578 14.46 118.183578 14.58375 118.289985 14.51875 114.603281 8.625 113.233756 8.625 113.233756 16.375 113.358941 16.375 113.358941 16.25"></polyline>
                    <path d="M122.218296,14.6525 C122.774119,15.215 123.453874,15.495 124.258815,15.495 C125.062504,15.495 125.743511,15.215 126.299333,14.6525 C126.855156,14.09 127.134319,13.3725 127.134319,12.5 C127.134319,11.6275 126.855156,10.91 126.299333,10.3475 C125.743511,9.785 125.062504,9.505 124.258815,9.505 C123.453874,9.505 122.774119,9.785 122.218296,10.3475 C121.663726,10.91 121.384563,11.6275 121.384563,12.5 C121.384563,13.3725 121.663726,14.09 122.218296,14.6525 L122.218296,14.6525 Z M127.012889,15.28125 C126.274296,16.03875 125.356689,16.4175 124.258815,16.4175 C123.160941,16.4175 122.242081,16.03875 121.505993,15.28125 C120.7674,14.52375 120.399356,13.59625 120.399356,12.5 C120.399356,11.40375 120.7674,10.47625 121.505993,9.71875 C122.242081,8.96125 123.160941,8.5825 124.258815,8.5825 C125.35043,8.5825 126.265533,8.9625 127.007881,9.72375 C127.748978,10.485 128.119526,11.41 128.119526,12.5 C128.119526,13.59625 127.75023,14.52375 127.012889,15.28125 L127.012889,15.28125 Z" id="Fill-37" fill="#FFFFFE"></path>
                    <path d="M122.218296,14.6525 L122.129415,14.74 C122.705267,15.325 123.425081,15.6225 124.258815,15.62125 C125.092548,15.6225 125.812363,15.325 126.388215,14.74 C126.967822,14.15625 127.260756,13.39875 127.259504,12.5 C127.260756,11.60125 126.967822,10.845 126.388215,10.26 C125.812363,9.675 125.092548,9.37875 124.258815,9.38 C123.425081,9.37875 122.705267,9.675 122.129415,10.26 C121.549807,10.845 121.258126,11.60125 121.259378,12.5 C121.258126,13.39875 121.549807,14.15625 122.129415,14.74 L122.307178,14.565 C121.776393,14.02625 121.511,13.34625 121.509748,12.5 C121.511,11.65375 121.776393,10.97375 122.307178,10.435 C122.84297,9.895 123.482667,9.63125 124.258815,9.63 C125.033711,9.63125 125.675911,9.895 126.2092,10.435 L126.214207,10.43875 L126.210452,10.435 C126.742489,10.975 127.007881,11.65375 127.009133,12.5 C127.007881,13.34625 126.742489,14.025 126.210452,14.565 C125.675911,15.105 125.033711,15.37 124.258815,15.37125 C123.482667,15.36875 122.84297,15.105 122.307178,14.565 L122.218296,14.6525 L122.218296,14.6525 Z M127.012889,15.28125 L126.922756,15.19375 C126.205444,15.92875 125.327896,16.29125 124.258815,16.2925 C123.189733,16.29125 122.310933,15.92875 121.594874,15.19375 L121.591119,15.19 L121.594874,15.19375 C120.878815,14.4575 120.525793,13.56875 120.524541,12.5 C120.525793,11.43125 120.878815,10.5425 121.594874,9.80625 C122.310933,9.07125 123.189733,8.70875 124.258815,8.7075 C125.321637,8.70875 126.196681,9.07375 126.917748,9.81125 C127.637563,10.55125 127.993089,11.43875 127.994341,12.5 C127.993089,13.56875 127.637563,14.4575 126.922756,15.19375 L127.103022,15.3675 C127.861644,14.59 128.245963,13.62375 128.244711,12.5 C128.245963,11.3825 127.860393,10.41875 127.098015,9.6375 C126.334385,8.8525 125.379222,8.45625 124.258815,8.4575 C123.132148,8.45625 122.17323,8.85125 121.415859,9.6325 C120.654733,10.41125 120.272919,11.37625 120.27417,12.5 C120.272919,13.62375 120.654733,14.59 121.415859,15.3675 C122.17323,16.15 123.132148,16.54375 124.258815,16.5425 C125.385481,16.54375 126.343148,16.15 127.103022,15.3675 L127.012889,15.28125 L127.012889,15.28125 Z" id="Fill-38" fill="#FFFFFE"></path>
                </g>
            </g>
        </g>
    </g>
</svg>