<?xml version="1.0" encoding="UTF-8"?>
<svg width="169px" height="50px" viewBox="0 0 169 50" version="1.1" xmlns="http://www.w3.org/2000/svg" xmlns:xlink="http://www.w3.org/1999/xlink">
    <!-- Generator: Sketch 49.3 (51167) - http://www.bohemiancoding.com/sketch -->
    <title>btn_ios</title>
    <desc>Created with Sketch.</desc>
    <defs>
        <polygon id="path-1" points="0.0751111111 50 169 50 169 0.05 0.0751111111 0.05"></polygon>
    </defs>
    <g id="Assets" stroke="none" stroke-width="1" fill="none" fill-rule="evenodd">
        <g transform="translate(-1241.000000, -270.000000)" id="btn_ios">
            <g transform="translate(1241.000000, 270.000000)">
                <g>
                    <g id="Group-3">
                        <mask id="mask-2" fill="white">
                            <use xlink:href="#path-1"></use>
                        </mask>
                        <g id="Clip-2"></g>
                        <path d="M162.987356,50 L5.92000741,50 C2.65642963,50 0,47.34 0,44.08375 L0,5.9075 C0,2.65 2.65642963,0 5.92000741,0 L162.987356,0 C166.249681,0 169,2.65 169,5.9075 L169,44.08375 C169,47.34 166.249681,50 162.987356,50" id="Fill-1" fill="#A9AAA9" mask="url(#mask-2)"></path>
                    </g>
                    <path d="M167.788207,44.085 C167.788207,46.73 165.642533,48.8725 162.988607,48.8725 L5.92000741,48.8725 C3.26733333,48.8725 1.11414815,46.73 1.11414815,44.085 L1.11414815,5.90625 C1.11414815,3.2625 3.26733333,1.1125 5.92000741,1.1125 L162.987356,1.1125 C165.642533,1.1125 167.786956,3.2625 167.786956,5.90625 L167.786956,44.085 L167.788207,44.085" id="Fill-4" fill="#0A0B09"></path>
                    <path d="M37.7157926,24.73 C37.6794889,20.70125 41.0194296,18.74125 41.1721556,18.64875 C39.2806074,15.895 36.3487704,15.51875 35.3184963,15.49 C32.8561037,15.23125 30.4675704,16.96125 29.2132148,16.96125 C27.9338222,16.96125 26.000963,15.515 23.9203852,15.5575 C21.2426741,15.59875 18.7352148,17.1475 17.3606815,19.5525 C14.5239852,24.45625 16.6396148,31.6625 19.3573852,35.62625 C20.7168963,37.5675 22.3054963,39.735 24.3835704,39.65875 C26.4178296,39.57375 27.1777037,38.3625 29.633837,38.3625 C32.0661852,38.3625 32.7797407,39.65875 34.9003778,39.61 C37.0836074,39.57375 38.4581407,37.66 39.7700815,35.70125 C41.3411556,33.475 41.9720889,31.28375 41.9971259,31.17125 C41.9458,31.155 37.7571037,29.55875 37.7157926,24.73" id="Fill-5" fill="#FFFFFE"></path>
                    <path d="M33.7098667,12.8825 C34.8027333,11.51625 35.5513407,9.6575 35.3435333,7.77125 C33.7599407,7.84125 31.7795111,8.86375 30.6403259,10.20125 C29.6313333,11.37875 28.73,13.30875 28.9628444,15.12375 C30.7417259,15.25625 32.5681778,14.2275 33.7098667,12.8825" id="Fill-6" fill="#FFFFFE"></path>
                    <path d="M62.3772741,32.44375 L60.9676889,28.10125 C60.8187185,27.65625 60.5395556,26.61125 60.1276963,24.96625 L60.0776222,24.96625 C59.9136296,25.675 59.6494889,26.71875 59.2864519,28.10125 L57.9031556,32.44375 L62.3772741,32.44375 L62.3772741,32.44375 Z M67.2457259,39.38 L64.4040222,39.38 L62.8467185,34.49375 L57.4337111,34.49375 L55.9502667,39.38 L53.1824222,39.38 L58.5453556,22.745 L61.8577556,22.745 L67.2457259,39.38 L67.2457259,39.38 Z" id="Fill-7" fill="#FFFFFE"></path>
                    <path d="M78.3183556,33.3325 C78.3183556,32.165 78.0554667,31.2025 77.528437,30.445 C76.9513333,29.65625 76.176437,29.26 75.205,29.26 C74.5452741,29.26 73.9481407,29.48 73.4136,29.915 C72.8765556,30.35125 72.5272889,30.9225 72.3620444,31.63125 C72.2794222,31.96 72.239363,32.23125 72.239363,32.44375 L72.239363,34.44375 C72.239363,35.31625 72.5060074,36.0525 73.0418,36.6525 C73.5775926,37.25375 74.2736222,37.55375 75.1311407,37.55375 C76.1351259,37.55375 76.9187852,37.16625 77.478363,36.39375 C78.0379407,35.62 78.3183556,34.6 78.3183556,33.3325 L78.3183556,33.3325 Z M81.0373778,33.235 C81.0373778,35.275 80.486563,36.8875 79.3824296,38.07125 C78.3934667,39.125 77.1654,39.65125 75.6994815,39.65125 C74.1171407,39.65125 72.9804593,39.08375 72.2881852,37.9475 L72.239363,37.9475 L72.239363,44.26625 L69.569163,44.26625 L69.569163,31.33375 C69.569163,30.05125 69.535363,28.735 69.4702667,27.385 L71.8187407,27.385 L71.9664593,29.28625 L72.0165333,29.28625 C72.9066,27.85375 74.2573481,27.13875 76.0700296,27.13875 C77.4871259,27.13875 78.6688741,27.6975 79.6165259,28.81625 C80.5641778,29.93625 81.0373778,31.40875 81.0373778,33.235 L81.0373778,33.235 Z" id="Fill-8" fill="#FFFFFE"></path>
                    <path d="M92.1362963,33.3325 C92.1362963,32.165 91.8721556,31.2025 91.3438741,30.445 C90.7667704,29.65625 89.9943778,29.26 89.020437,29.26 C88.3607111,29.26 87.7635778,29.48 87.229037,29.915 C86.6932444,30.35125 86.3439778,30.9225 86.1787333,31.63125 C86.097363,31.96 86.0560519,32.23125 86.0560519,32.44375 L86.0560519,34.44375 C86.0560519,35.31625 86.3226963,36.0525 86.857237,36.6525 C87.3930296,37.25375 88.0890593,37.55375 88.9478296,37.55375 C89.9518148,37.55375 90.7342222,37.16625 91.2950519,36.39375 C91.8546296,35.62 92.1362963,34.6 92.1362963,33.3325 L92.1362963,33.3325 Z M94.8540667,33.235 C94.8540667,35.275 94.302,36.8875 93.1966148,38.07125 C92.2089037,39.125 90.9820889,39.65125 89.5149185,39.65125 C87.9325778,39.65125 86.7958963,39.08375 86.1048741,37.9475 L86.0560519,37.9475 L86.0560519,44.26625 L83.3858519,44.26625 L83.3858519,31.33375 C83.3858519,30.05125 83.3520519,28.735 83.2869556,27.385 L85.6354296,27.385 L85.7831481,29.28625 L85.8332222,29.28625 C86.722037,27.85375 88.0727852,27.13875 89.8867185,27.13875 C91.302563,27.13875 92.485563,27.6975 93.4344667,28.81625 C94.3808667,29.93625 94.8540667,31.40875 94.8540667,33.235 L94.8540667,33.235 Z" id="Fill-9" fill="#FFFFFE"></path>
                    <path d="M110.301919,34.71625 C110.301919,36.13 109.811193,37.28125 108.823481,38.17 C107.736874,39.1425 106.225889,39.62625 104.285519,39.62625 C102.492867,39.62625 101.055741,39.28125 99.9666296,38.59 L100.586296,36.36875 C101.756778,37.07625 103.04243,37.43 104.444504,37.43 C105.448489,37.43 106.230896,37.20375 106.79423,36.75 C107.353807,36.2975 107.63297,35.69125 107.63297,34.9325 C107.63297,34.2575 107.40263,33.68875 106.940696,33.2275 C106.481267,32.76625 105.71263,32.3375 104.642296,31.94125 C101.725481,30.855 100.268326,29.26375 100.268326,27.17 C100.268326,25.80375 100.779081,24.6825 101.800593,23.80875 C102.820852,22.935 104.180363,22.49875 105.879126,22.49875 C107.395119,22.49875 108.654481,22.76125 109.659719,23.2875 L108.99123,25.46 C108.052341,24.95 106.992022,24.695 105.804015,24.695 C104.865126,24.695 104.131541,24.925 103.605763,25.38625 C103.160104,25.7975 102.938526,26.29875 102.938526,26.8925 C102.938526,27.55 103.192652,28.09375 103.703407,28.52 C104.147815,28.91625 104.955259,29.34375 106.125741,29.805 C107.559111,30.38125 108.61317,31.055 109.290422,31.8275 C109.96517,32.60125 110.301919,33.565 110.301919,34.71625" id="Fill-10" fill="#FFFFFE"></path>
                    <path d="M119.126222,29.385 L116.185622,29.385 L116.185622,35.20875 C116.185622,36.69 116.703889,37.43 117.742926,37.43 C118.219881,37.43 118.615467,37.38875 118.92843,37.3075 L119.002289,39.33125 C118.476511,39.5275 117.784237,39.62625 116.925467,39.62625 C115.872659,39.62625 115.047689,39.305 114.454311,38.665 C113.862185,38.0225 113.564244,36.945 113.564244,35.43125 L113.564244,29.385 L111.8104,29.385 L111.8104,27.385 L113.564244,27.385 L113.564244,25.18875 L116.185622,24.39875 L116.185622,27.385 L119.126222,27.385 L119.126222,29.385" id="Fill-11" fill="#FFFFFE"></path>
                    <path d="M129.630511,33.37 C129.630511,32.265 129.392659,31.31625 128.914452,30.52375 C128.353622,29.56625 127.554941,29.08875 126.517156,29.08875 C125.444319,29.08875 124.630615,29.56625 124.069785,30.52375 C123.591578,31.31625 123.353726,32.28 123.353726,33.42 C123.353726,34.52625 123.591578,35.475 124.069785,36.26625 C124.646889,37.2225 125.454333,37.70125 126.49337,37.70125 C127.512378,37.70125 128.312311,37.215 128.889415,36.24125 C129.383896,35.43375 129.630511,34.475 129.630511,33.37 L129.630511,33.37 Z M132.400859,33.28375 C132.400859,35.1275 131.872578,36.64125 130.818519,37.825 C129.713133,39.0425 128.245963,39.65125 126.417007,39.65125 C124.6544,39.65125 123.251074,39.0675 122.204526,37.89875 C121.157978,36.73125 120.634704,35.2575 120.634704,33.48125 C120.634704,31.6225 121.173,30.1 122.253348,28.91625 C123.331193,27.73125 124.787096,27.13875 126.616052,27.13875 C128.378659,27.13875 129.797007,27.7225 130.867341,28.89125 C131.888852,30.02625 132.400859,31.49 132.400859,33.28375 L132.400859,33.28375 Z" id="Fill-12" fill="#FFFFFE"></path>
                    <path d="M141.074941,29.72875 C140.8108,29.68 140.530385,29.65625 140.233696,29.65625 C139.294807,29.65625 138.568733,30.01 138.057978,30.7175 C137.61357,31.3425 137.390741,32.1325 137.390741,33.08625 L137.390741,39.38 L134.723044,39.38 L134.748081,31.1625 C134.748081,29.77875 134.71303,28.52 134.647933,27.385 L136.972622,27.385 L137.070267,29.68 L137.144126,29.68 C137.424541,28.89125 137.8702,28.25625 138.4786,27.78125 C139.07323,27.3525 139.71543,27.13875 140.407704,27.13875 C140.654319,27.13875 140.877148,27.15625 141.074941,27.1875 L141.074941,29.72875" id="Fill-13" fill="#FFFFFE"></path>
                    <path d="M150.466333,32.12375 C150.483859,31.33375 150.309852,30.6525 149.948067,30.075 C149.486133,29.335 148.777585,28.965 147.82117,28.965 C146.94863,28.965 146.23883,29.32625 145.696778,30.05125 C145.251119,30.6275 144.986978,31.31875 144.906859,32.12375 L150.466333,32.12375 L150.466333,32.12375 Z M153.0126,32.815 C153.0126,33.2925 152.980052,33.695 152.913704,34.02375 L144.906859,34.02375 C144.938156,35.20875 145.324978,36.115 146.068578,36.74 C146.743326,37.29875 147.615867,37.57875 148.6862,37.57875 C149.872956,37.57875 150.953304,37.38875 151.925993,37.01 L152.344111,38.86125 C151.20743,39.355 149.865444,39.6025 148.318156,39.6025 C146.454148,39.6025 144.991985,39.055 143.929163,37.96 C142.867593,36.86625 142.334304,35.3975 142.334304,33.555 C142.334304,31.745 142.828785,30.23875 143.819,29.03875 C144.855533,27.755 146.256356,27.11375 148.018963,27.11375 C149.750274,27.11375 151.060963,27.755 151.95103,29.03875 C152.657074,30.05875 153.0126,31.31875 153.0126,32.815 L153.0126,32.815 Z" id="Fill-14" fill="#FFFFFE"></path>
                    <path d="M58.7744444,14.415 C58.7744444,13.93 58.584163,13.5625 58.2061037,13.31125 C57.8668519,13.085 57.4161852,12.97125 56.8528519,12.97125 L56.0779556,12.97125 L56.0779556,15.82125 C56.2394444,15.85375 56.504837,15.87 56.876637,15.87 C57.4312074,15.87 57.8718593,15.76 58.1935852,15.5425 C58.5804074,15.29125 58.7744444,14.91625 58.7744444,14.415 L58.7744444,14.415 Z M58.5303333,10.74125 C58.5303333,9.94125 57.9995481,9.54 56.9367259,9.54 C56.5649259,9.54 56.2795037,9.565 56.0779556,9.61375 L56.0779556,12.01375 L56.8879037,12.01375 C57.3949037,12.01375 57.7954963,11.8975 58.0896815,11.6625 C58.3838667,11.42875 58.5303333,11.12125 58.5303333,10.74125 L58.5303333,10.74125 Z M60.1452222,14.45125 C60.1452222,15.11375 59.8986074,15.66375 59.4053778,16.1 C58.8382889,16.61 57.8668519,16.86375 56.4910667,16.86375 C55.8601333,16.86375 55.2855333,16.83125 54.7660148,16.7675 L54.7660148,8.7275 C55.3155778,8.615 55.9940815,8.55875 56.8015259,8.55875 C57.8030074,8.55875 58.5603778,8.74 59.073637,9.10375 C59.5856444,9.4675 59.8422741,9.96875 59.8422741,10.6075 C59.8422741,10.995 59.7233481,11.35 59.488,11.66875 C59.2514,11.9875 58.9196593,12.22375 58.4952815,12.3775 L58.4952815,12.415 C58.955963,12.5275 59.3365259,12.74625 59.6357185,13.06875 C59.9762222,13.44875 60.1452222,13.91 60.1452222,14.45125 L60.1452222,14.45125 Z" id="Fill-15" fill="#FFFFFE"></path>
                    <path d="M65.1976963,14.76625 L65.1976963,13.8575 C63.7480519,13.8325 63.0244815,14.22875 63.0244815,15.045 C63.0244815,15.3525 63.1096074,15.5825 63.2773556,15.73625 C63.4463556,15.89 63.6604222,15.96625 63.9170519,15.96625 C64.2074815,15.96625 64.4741259,15.87625 64.7207407,15.69375 C64.9661037,15.5125 65.1175778,15.28 65.1739111,14.9975 C65.1901852,14.9325 65.1976963,14.855 65.1976963,14.76625 L65.1976963,14.76625 Z M66.5572074,16.79125 L65.3792148,16.79125 L65.2828222,16.1125 L65.2465185,16.1125 C64.8409185,16.65375 64.2663185,16.925 63.5227185,16.925 C62.9631407,16.925 62.5137259,16.7475 62.1732222,16.39125 C61.8652667,16.0675 61.7125407,15.6675 61.7125407,15.19125 C61.7125407,14.47125 62.014237,13.9225 62.6176296,13.54125 C63.2197704,13.1625 64.0685259,12.97625 65.1613926,12.98375 L65.1613926,12.875 C65.1613926,12.09875 64.7532889,11.71125 63.9383333,11.71125 C63.3562222,11.71125 62.842963,11.85625 62.3985556,12.1475 L62.1319111,11.28625 C62.6814741,10.9475 63.3574741,10.7775 64.1561556,10.7775 C65.7009407,10.7775 66.4720815,11.59 66.4720815,13.215 L66.4720815,15.385 C66.4720815,15.975 66.5021259,16.44375 66.5572074,16.79125 L66.5572074,16.79125 Z" id="Fill-16" fill="#FFFFFE"></path>
                    <path d="M68.7667259,16.79125 L70.0786667,16.79125 L70.0786667,10.89875 L68.7667259,10.89875 L68.7667259,16.79125 Z M70.2238815,9.14125 C70.2238815,9.375 70.1475185,9.565 69.9947926,9.71 C69.8408148,9.85625 69.6417704,9.92875 69.3989111,9.92875 C69.179837,9.92875 68.9958148,9.85375 68.8468444,9.705 C68.6953704,9.555 68.6215111,9.3675 68.6215111,9.14125 C68.6215111,8.91375 68.6978741,8.7275 68.8518519,8.5825 C69.0058296,8.4375 69.1961111,8.36375 69.4226963,8.36375 C69.6492815,8.36375 69.8408148,8.4375 69.9947926,8.5825 C70.1475185,8.7275 70.2238815,8.91375 70.2238815,9.14125 L70.2238815,9.14125 Z" id="Fill-17" fill="#FFFFFE"></path>
                    <path d="M77.2192296,16.79125 L75.737037,16.79125 L74.9721556,15.555 C74.8019037,15.28 74.6166296,14.9525 74.4138296,14.5725 L74.3887926,14.5725 C74.2686148,14.8075 74.0820889,15.13375 73.8317185,15.555 L73.1031407,16.79125 L71.6697704,16.79125 L73.6852519,13.78375 L71.7423778,10.89875 L73.1995333,10.89875 L73.9406296,12.075 C74.0858444,12.30125 74.2686148,12.6125 74.486437,13.00875 L74.5239926,13.00875 C74.7005037,12.66125 74.8795185,12.34125 75.0572815,12.05125 L75.7495556,10.89875 L77.1829259,10.89875 L75.2275333,13.73625 L77.2192296,16.79125" id="Fill-18" fill="#FFFFFE"></path>
                    <path d="M81.9049111,14.76625 L81.9049111,13.8575 C80.4565185,13.8325 79.7329481,14.22875 79.7329481,15.045 C79.7329481,15.3525 79.8168222,15.5825 79.9858222,15.73625 C80.1548222,15.89 80.3688889,15.96625 80.6255185,15.96625 C80.9146963,15.96625 81.1825926,15.87625 81.4279556,15.69375 C81.6745704,15.5125 81.8260444,15.28 81.8823778,14.9975 C81.8974,14.9325 81.9049111,14.855 81.9049111,14.76625 L81.9049111,14.76625 Z M83.2656741,16.79125 L82.0876815,16.79125 L81.9912889,16.1125 L81.9537333,16.1125 C81.5493852,16.65375 80.9747852,16.925 80.2299333,16.925 C79.6716074,16.925 79.2221926,16.7475 78.8816889,16.39125 C78.5737333,16.0675 78.4210074,15.6675 78.4210074,15.19125 C78.4210074,14.47125 78.7214519,13.9225 79.3260963,13.54125 C79.928237,13.1625 80.7769926,12.97625 81.8698593,12.98375 L81.8698593,12.875 C81.8698593,12.09875 81.4617556,11.71125 80.6455481,11.71125 C80.063437,11.71125 79.5501778,11.85625 79.1070222,12.1475 L78.8403778,11.28625 C79.3886889,10.9475 80.0646889,10.7775 80.8646222,10.7775 C82.4094074,10.7775 83.1805481,11.59 83.1805481,13.215 L83.1805481,15.385 C83.1805481,15.975 83.2093407,16.44375 83.2656741,16.79125 L83.2656741,16.79125 Z" id="Fill-19" fill="#FFFFFE"></path>
                    <path d="M88.5948074,12.05125 C88.4658667,12.02625 88.3294148,12.01375 88.1816963,12.01375 C87.7222667,12.01375 87.3654889,12.1875 87.1138667,12.535 C86.8960444,12.8425 86.7858815,13.23 86.7858815,13.69875 L86.7858815,16.79125 L85.4751926,16.79125 L85.4877111,12.75375 C85.4877111,12.075 85.471437,11.45625 85.4388889,10.89875 L86.5805778,10.89875 L86.6294,12.02625 L86.6657037,12.02625 C86.8034074,11.63875 87.0212296,11.3275 87.3216741,11.0925 C87.6121037,10.8825 87.9275704,10.7775 88.2680741,10.7775 C88.3895037,10.7775 88.4996667,10.785 88.5948074,10.80125 L88.5948074,12.05125" id="Fill-20" fill="#FFFFFE"></path>
                    <path d="M98.9426148,16.79125 L97.6294222,16.79125 L97.6294222,13.41625 C97.6294222,12.37625 97.233837,11.85625 96.4414148,11.85625 C96.0533407,11.85625 95.7378741,12 95.4925111,12.28625 C95.2509037,12.5725 95.1282222,12.90875 95.1282222,13.29625 L95.1282222,16.79125 L93.8175333,16.79125 L93.8175333,12.58375 C93.8175333,12.06625 93.8012593,11.505 93.7687111,10.89875 L94.9229185,10.89875 L94.9842593,11.82 L95.020563,11.82 C95.172037,11.53375 95.3998741,11.29625 95.7003185,11.10875 C96.0545926,10.8875 96.4539333,10.7775 96.8883259,10.7775 C97.4416444,10.7775 97.8985704,10.955 98.2628593,11.31125 C98.7147778,11.7475 98.9426148,12.3975 98.9426148,13.2625 L98.9426148,16.79125" id="Fill-21" fill="#FFFFFE"></path>
                    <path d="M104.309304,14.76625 L104.309304,13.8575 C102.859659,13.8325 102.136089,14.22875 102.136089,15.045 C102.136089,15.3525 102.221215,15.5825 102.390215,15.73625 C102.559215,15.89 102.77203,15.96625 103.028659,15.96625 C103.319089,15.96625 103.585733,15.87625 103.832348,15.69375 C104.077711,15.5125 104.229185,15.28 104.285519,14.9975 C104.301793,14.9325 104.309304,14.855 104.309304,14.76625 L104.309304,14.76625 Z M105.668815,16.79125 L104.490822,16.79125 L104.395681,16.1125 L104.358126,16.1125 C103.952526,16.65375 103.377926,16.925 102.634326,16.925 C102.074748,16.925 101.625333,16.7475 101.28483,16.39125 C100.976874,16.0675 100.8254,15.6675 100.8254,15.19125 C100.8254,14.47125 101.125844,13.9225 101.730489,13.54125 C102.331378,13.1625 103.180133,12.97625 104.273,12.98375 L104.273,12.875 C104.273,12.09875 103.864896,11.71125 103.049941,11.71125 C102.469081,11.71125 101.95457,11.85625 101.510163,12.1475 L101.243519,11.28625 C101.793081,10.9475 102.469081,10.7775 103.267763,10.7775 C104.8138,10.7775 105.583689,11.59 105.583689,13.215 L105.583689,15.385 C105.583689,15.975 105.612481,16.44375 105.668815,16.79125 L105.668815,16.79125 Z" id="Fill-22" fill="#FFFFFE"></path>
                </g>
            </g>
        </g>
    </g>
</svg>