<?xml version="1.0" encoding="UTF-8"?>
<svg width="17px" height="20px" viewBox="0 0 17 20" version="1.1" xmlns="http://www.w3.org/2000/svg" xmlns:xlink="http://www.w3.org/1999/xlink">
    <!-- Generator: Sketch 49.3 (51167) - http://www.bohemiancoding.com/sketch -->
    <title>ic_android</title>
    <desc>Created with Sketch.</desc>
    <defs></defs>
    <g id="Assets" stroke="none" stroke-width="1" fill="none" fill-rule="evenodd">
        <g transform="translate(-1075.000000, -36.000000)" fill="#FFFFFF" id="ic_android">
            <g transform="translate(1075.000000, 36.000000)">
                <path d="M3.09090909,14.5499484 L3.09090909,6.76416031 L13.9090909,6.76416031 L13.9090909,14.5499484 C13.9090909,15.4063851 13.2136364,16.107106 12.3636364,16.107106 L11.8484848,16.107106 L11.8484848,18.7023687 C11.8484848,19.4189207 11.2720303,20 10.5606061,20 C9.84918182,20 9.27272727,19.4189207 9.27272727,18.7023687 L9.27272727,16.107106 L7.72727273,16.107106 L7.72727273,18.7023687 C7.72727273,19.4189207 7.15081818,20 6.43939394,20 C5.7279697,20 5.15151515,19.4189207 5.15151515,18.7023687 L5.15151515,16.107106 L4.63636364,16.107106 C3.78636364,16.107106 3.09090909,15.4063851 3.09090909,14.5499484 Z M15.7121212,6.50463405 C16.4235455,6.50463405 17,7.08571336 17,7.80226539 L17,12.9927908 C17,13.7093428 16.4235455,14.2904221 15.7121212,14.2904221 C15.000697,14.2904221 14.4242424,13.7093428 14.4242424,12.9927908 L14.4242424,7.80226539 C14.4242424,7.08571336 15.000697,6.50463405 15.7121212,6.50463405 Z M1.28787879,6.50463405 C1.99930303,6.50463405 2.57575758,7.08571336 2.57575758,7.80226539 L2.57575758,12.9927908 C2.57575758,13.7093428 1.99930303,14.2904221 1.28787879,14.2904221 C0.576454545,14.2904221 0,13.7093428 0,12.9927908 L0,7.80226539 C0,7.08571336 0.576454545,6.50463405 1.28787879,6.50463405 Z M11.4276061,1.66654535 C12.9192273,2.63691407 13.9090909,4.32305623 13.9090909,6.24510778 L3.09090909,6.24510778 C3.09090909,4.32305623 4.08077273,2.63691407 5.57239394,1.66654535 L4.87719697,0.38422606 C4.80893939,0.258355819 4.85504545,0.100823375 4.97971212,0.0320489134 C5.10437879,-0.0372446002 5.26072727,0.00972965436 5.32924242,0.135340368 L6.01825758,1.40598098 C6.76213636,1.01772968 7.60440909,0.795056142 8.5,0.795056142 C9.39559091,0.795056142 10.2378636,1.01772968 10.9817424,1.40598098 L11.6707576,0.135340368 C11.7387576,0.00947012809 11.8956212,-0.0367255477 12.0202879,0.0320489134 C12.1449545,0.100823375 12.1910606,0.258355819 12.122803,0.38422606 L11.4276061,1.66654535 Z M6.18181818,4.4284239 C6.46618182,4.4284239 6.6969697,4.19588836 6.6969697,3.90937136 C6.6969697,3.62285436 6.46618182,3.39031883 6.18181818,3.39031883 C5.89745455,3.39031883 5.66666667,3.62285436 5.66666667,3.90937136 C5.66666667,4.19588836 5.89745455,4.4284239 6.18181818,4.4284239 Z M10.8181818,4.4284239 C11.1025455,4.4284239 11.3333333,4.19588836 11.3333333,3.90937136 C11.3333333,3.62285436 11.1025455,3.39031883 10.8181818,3.39031883 C10.5338182,3.39031883 10.3030303,3.62285436 10.3030303,3.90937136 C10.3030303,4.19588836 10.5338182,4.4284239 10.8181818,4.4284239 Z"></path>
            </g>
        </g>
    </g>
</svg>